<?xml version="1.0" encoding="UTF-8"?>
<svg xmlns="http://www.w3.org/2000/svg" viewBox="0 0 800 500" font-family="Inter, 'Segoe UI', system-ui, sans-serif">
  <defs>
    <radialGradient id="ga" cx="20%" cy="85%" r="85%">
      <stop offset="0" stop-color="#3f6f96" stop-opacity=".5"/>
      <stop offset="1" stop-color="#3f6f96" stop-opacity="0"/>
    </radialGradient>
    <radialGradient id="gb" cx="88%" cy="12%" r="80%">
      <stop offset="0" stop-color="#1c1d33" stop-opacity=".9"/>
      <stop offset="1" stop-color="#1c1d33" stop-opacity="0"/>
    </radialGradient>
    <marker id="ah" viewBox="0 0 8 8" refX="7" refY="4" markerWidth="5" markerHeight="5" orient="auto">
      <path d="M0 0 L8 4 L0 8 Z" fill="#9fc4de" fill-opacity=".4"/>
    </marker>
    <marker id="ahAmber" viewBox="0 0 8 8" refX="7" refY="4" markerWidth="6" markerHeight="6" orient="auto">
      <path d="M0 0 L8 4 L0 8 Z" fill="#e5b458"/>
    </marker>
  </defs>

  <rect width="800" height="500" fill="#0a0b15"/>
  <rect width="800" height="500" fill="url(#gb)"/>
  <rect width="800" height="500" fill="url(#ga)"/>

  <!-- coins viseur -->
  <g stroke="#ece7dd" stroke-opacity=".4" stroke-width="3" fill="none">
    <path d="M28 54 V28 H54"/>
    <path d="M746 28 H772 V54"/>
    <path d="M772 446 V472 H746"/>
    <path d="M54 472 H28 V446"/>
  </g>

  <!-- titre -->
  <text x="56" y="62" font-size="14" font-weight="600" letter-spacing="3" fill="#ece7dd" opacity=".85">SUIVI DE CIBLE · TEMPS RÉEL</text>
  <rect x="56" y="74" width="34" height="3" rx="1.5" fill="#8fb8dc"/>
  <g>
    <rect x="566" y="44" width="178" height="30" rx="15" fill="#8fb8dc" fill-opacity=".08" stroke="#8fb8dc" stroke-opacity=".45"/>
    <text x="655" y="63" font-size="11.5" letter-spacing="1.5" fill="#bcd6ea" text-anchor="middle">KALMAN · PARTICULES</text>
  </g>

  <!-- champ de flot optique -->
  <g stroke="#9fc4de" stroke-opacity=".22" stroke-width="1.5" marker-end="url(#ah)">
    <line x1="90" y1="130" x2="106" y2="124"/>
    <line x1="190" y1="118" x2="206" y2="112"/>
    <line x1="300" y1="106" x2="316" y2="100"/>
    <line x1="90" y1="220" x2="107" y2="213"/>
    <line x1="190" y1="205" x2="207" y2="199"/>
    <line x1="295" y1="180" x2="311" y2="173"/>
    <line x1="86" y1="310" x2="102" y2="304"/>
    <line x1="400" y1="120" x2="416" y2="113"/>
    <line x1="180" y1="300" x2="196" y2="293"/>
    <line x1="120" y1="400" x2="136" y2="394"/>
    <line x1="260" y1="390" x2="276" y2="383"/>
    <line x1="390" y1="360" x2="406" y2="353"/>
    <line x1="500" y1="330" x2="516" y2="323"/>
    <line x1="620" y1="300" x2="636" y2="293"/>
    <line x1="700" y1="220" x2="716" y2="213"/>
    <line x1="680" y1="390" x2="696" y2="383"/>
    <line x1="540" y1="420" x2="556" y2="413"/>
  </g>

  <!-- trajectoire passée -->
  <g fill="#8fb8dc">
    <circle cx="130" cy="392" r="2" opacity=".2"/>
    <circle cx="168" cy="376" r="2.3" opacity=".27"/>
    <circle cx="206" cy="358" r="2.6" opacity=".34"/>
    <circle cx="243" cy="338" r="2.9" opacity=".41"/>
    <circle cx="279" cy="317" r="3.1" opacity=".48"/>
    <circle cx="314" cy="295" r="3.4" opacity=".55"/>
    <circle cx="348" cy="272" r="3.6" opacity=".62"/>
    <circle cx="381" cy="250" r="3.9" opacity=".69"/>
    <circle cx="413" cy="231" r="4.1" opacity=".76"/>
    <circle cx="444" cy="218" r="4.3" opacity=".83"/>
    <circle cx="474" cy="209" r="4.5" opacity=".9"/>
  </g>

  <!-- cible -->
  <circle cx="484" cy="224" r="11" fill="#ece7dd" opacity=".07"/>
  <circle cx="498" cy="218" r="11" fill="#ece7dd" opacity=".15"/>
  <circle cx="516" cy="212" r="11" fill="#ece7dd"/>
  <rect x="472" y="168" width="88" height="88" rx="2" fill="#6ba3d6" fill-opacity=".06" stroke="#6ba3d6" stroke-width="3"/>
  <rect x="472" y="140" width="118" height="24" rx="4" fill="#6ba3d6"/>
  <text x="531" y="156" font-size="11.5" font-weight="700" letter-spacing="1" fill="#0a0b15" text-anchor="middle">CIBLE · 0,94</text>

  <!-- prédiction Kalman -->
  <line x1="536" y1="204" x2="604" y2="184" stroke="#e5b458" stroke-width="2" stroke-dasharray="6 5" marker-end="url(#ahAmber)"/>
  <g transform="rotate(-14 640 172)">
    <ellipse cx="640" cy="172" rx="54" ry="32" fill="#e5b458" fill-opacity=".05" stroke="#e5b458" stroke-width="2.5" stroke-dasharray="8 6"/>
  </g>
  <line x1="632" y1="172" x2="648" y2="172" stroke="#e5b458" stroke-width="3"/>
  <line x1="640" y1="164" x2="640" y2="180" stroke="#e5b458" stroke-width="3"/>

  <!-- nuage de particules -->
  <g fill="#f0cf8a">
    <circle cx="618" cy="160" r="2" opacity=".7"/>
    <circle cx="630" cy="150" r="1.8" opacity=".5"/>
    <circle cx="646" cy="148" r="2.2" opacity=".6"/>
    <circle cx="660" cy="156" r="1.6" opacity=".45"/>
    <circle cx="672" cy="164" r="2" opacity=".55"/>
    <circle cx="612" cy="176" r="1.8" opacity=".6"/>
    <circle cx="624" cy="184" r="2.4" opacity=".8"/>
    <circle cx="638" cy="188" r="1.7" opacity=".5"/>
    <circle cx="652" cy="184" r="2.1" opacity=".65"/>
    <circle cx="666" cy="178" r="1.6" opacity=".4"/>
    <circle cx="628" cy="166" r="2.5" opacity=".95"/>
    <circle cx="644" cy="162" r="2.3" opacity=".85"/>
    <circle cx="654" cy="170" r="2" opacity=".7"/>
    <circle cx="600" cy="168" r="1.5" opacity=".35"/>
    <circle cx="682" cy="170" r="1.5" opacity=".3"/>
    <circle cx="636" cy="176" r="2.2" opacity=".9"/>
  </g>

  <!-- légende -->
  <g font-size="11.5" fill="#ece7dd" opacity=".85">
    <circle cx="60" cy="448" r="4" fill="#8fb8dc"/>
    <text x="72" y="452" opacity=".7">Trajectoire</text>
    <line x1="152" y1="448" x2="176" y2="448" stroke="#e5b458" stroke-width="2.5" stroke-dasharray="5 4"/>
    <text x="184" y="452" opacity=".7">Prédiction Kalman</text>
    <circle cx="304" cy="444" r="1.8" fill="#f0cf8a"/>
    <circle cx="310" cy="450" r="1.8" fill="#f0cf8a"/>
    <circle cx="303" cy="452" r="1.8" fill="#f0cf8a"/>
    <text x="320" y="452" opacity=".7">Particules</text>
  </g>
  <text x="744" y="452" font-size="11" letter-spacing="1.5" fill="#ece7dd" opacity=".5" text-anchor="end">IMAGE 0421 · 60 i/s</text>
</svg>
